<?xml version="1.0" encoding="UTF-8" standalone="no"?>
<!DOCTYPE svg PUBLIC "-//W3C//DTD SVG 1.1//EN"
 "http://www.w3.org/Graphics/SVG/1.1/DTD/svg11.dtd">
<!-- Generated by graphviz version 2.26.3 (20100126.1600)
 -->
<!-- Title: G Pages: 1 -->
<svg width="810pt" height="552pt"
 viewBox="0.00 0.00 810.00 552.00" xmlns="http://www.w3.org/2000/svg" xmlns:xlink="http://www.w3.org/1999/xlink">
<g id="graph1" class="graph" transform="scale(1 1) rotate(0) translate(4 548)">
<title>G</title>
<polygon fill="white" stroke="white" points="-4,5 -4,-548 807,-548 807,5 -4,5"/>
<g id="graph3" class="cluster"><title>cluster_no</title>
<polyline fill="none" stroke="gray" points="20,-8 782,-8 "/>
<path fill="none" stroke="gray" d="M782,-8C788,-8 794,-14 794,-20"/>
<polyline fill="none" stroke="gray" points="794,-20 794,-524 "/>
<path fill="none" stroke="gray" d="M794,-524C794,-530 788,-536 782,-536"/>
<polyline fill="none" stroke="gray" points="782,-536 20,-536 "/>
<path fill="none" stroke="gray" d="M20,-536C14,-536 8,-530 8,-524"/>
<polyline fill="none" stroke="gray" points="8,-524 8,-20 "/>
<path fill="none" stroke="gray" d="M8,-20C8,-14 14,-8 20,-8"/>
<text text-anchor="middle" x="401" y="-522.1" font-family="Times Roman,serif" font-size="11.00" fill="gray">no</text>
</g>
<g id="graph4" class="cluster"><title>cluster_no\malmanger</title>
<polyline fill="none" stroke="gray" points="28,-16 774,-16 "/>
<path fill="none" stroke="gray" d="M774,-16C780,-16 786,-22 786,-28"/>
<polyline fill="none" stroke="gray" points="786,-28 786,-494 "/>
<path fill="none" stroke="gray" d="M786,-494C786,-500 780,-506 774,-506"/>
<polyline fill="none" stroke="gray" points="774,-506 28,-506 "/>
<path fill="none" stroke="gray" d="M28,-506C22,-506 16,-500 16,-494"/>
<polyline fill="none" stroke="gray" points="16,-494 16,-28 "/>
<path fill="none" stroke="gray" d="M16,-28C16,-22 22,-16 28,-16"/>
<text text-anchor="middle" x="401" y="-492.1" font-family="Times Roman,serif" font-size="11.00" fill="gray">malmanger</text>
</g>
<g id="graph5" class="cluster"><title>cluster_no\malmanger\mjqm</title>
<polyline fill="none" stroke="gray" points="36,-24 766,-24 "/>
<path fill="none" stroke="gray" d="M766,-24C772,-24 778,-30 778,-36"/>
<polyline fill="none" stroke="gray" points="778,-36 778,-464 "/>
<path fill="none" stroke="gray" d="M778,-464C778,-470 772,-476 766,-476"/>
<polyline fill="none" stroke="gray" points="766,-476 36,-476 "/>
<path fill="none" stroke="gray" d="M36,-476C30,-476 24,-470 24,-464"/>
<polyline fill="none" stroke="gray" points="24,-464 24,-36 "/>
<path fill="none" stroke="gray" d="M24,-36C24,-30 30,-24 36,-24"/>
<text text-anchor="middle" x="401" y="-462.1" font-family="Times Roman,serif" font-size="11.00" fill="gray">mjqm</text>
</g>
<!-- \\no\\malmanger\\mjqm\\Log -->
<g id="node5" class="node"><title>\\no\\malmanger\\mjqm\\Log</title>
<a xlink:href="helper.html" xlink:title="Log" target="_parent">
<polygon fill="none" stroke="black" points="751,-419 697,-419 697,-383 751,-383 751,-419"/>
<text text-anchor="middle" x="724" y="-397.6" font-family="Courier,monospace" font-size="11.00">Log</text>
</a>
</g>
<!-- \\no\\malmanger\\mjqm\\HeadMeta -->
<g id="node6" class="node"><title>\\no\\malmanger\\mjqm\\HeadMeta</title>
<a xlink:href="classes.headmeta.class.html" xlink:title="HeadMeta" target="_parent">
<polygon fill="none" stroke="black" points="589,-446 519,-446 519,-410 589,-410 589,-446"/>
<text text-anchor="middle" x="554" y="-424.6" font-family="Courier,monospace" font-size="11.00">HeadMeta</text>
</a>
</g>
<!-- \\no\\malmanger\\mjqm\\Element -->
<g id="node9" class="node"><title>\\no\\malmanger\\mjqm\\Element</title>
<a xlink:href="classes.element.class.html" xlink:title="Element" target="_parent">
<polygon fill="none" stroke="black" points="423,-338 359,-338 359,-302 423,-302 423,-338"/>
<text text-anchor="middle" x="391" y="-316.6" font-family="Courier,monospace" font-size="11.00">Element</text>
</a>
</g>
<!-- \\no\\malmanger\\mjqm\\HeadMeta&#45;&gt;\\no\\malmanger\\mjqm\\Element -->
<g id="edge7" class="edge"><title>\\no\\malmanger\\mjqm\\HeadMeta&#45;&gt;\\no\\malmanger\\mjqm\\Element</title>
<path fill="none" stroke="black" d="M518.354,-410.407C512.801,-407.405 507.188,-404.214 502,-401 473.768,-383.509 443.416,-361.088 421.598,-344.271"/>
<polygon fill="none" stroke="black" points="423.722,-341.489 413.677,-338.122 419.43,-347.019 423.722,-341.489"/>
</g>
<!-- \\no\\malmanger\\mjqm\\HeadLink -->
<g id="node7" class="node"><title>\\no\\malmanger\\mjqm\\HeadLink</title>
<a xlink:href="classes.headlink.class.html" xlink:title="HeadLink" target="_parent">
<polygon fill="none" stroke="black" points="589,-392 519,-392 519,-356 589,-356 589,-392"/>
<text text-anchor="middle" x="554" y="-370.6" font-family="Courier,monospace" font-size="11.00">HeadLink</text>
</a>
</g>
<!-- \\no\\malmanger\\mjqm\\HeadLink&#45;&gt;\\no\\malmanger\\mjqm\\Element -->
<g id="edge9" class="edge"><title>\\no\\malmanger\\mjqm\\HeadLink&#45;&gt;\\no\\malmanger\\mjqm\\Element</title>
<path fill="none" stroke="black" d="M518.229,-362.149C493.05,-353.808 459.262,-342.614 432.833,-333.859"/>
<polygon fill="none" stroke="black" points="433.691,-330.456 423.098,-330.634 431.49,-337.101 433.691,-330.456"/>
</g>
<!-- \\no\\malmanger\\mjqm\\Form -->
<g id="node8" class="node"><title>\\no\\malmanger\\mjqm\\Form</title>
<a xlink:href="classes.form.class.html" xlink:title="Form" target="_parent">
<polygon fill="none" stroke="black" points="581,-230 527,-230 527,-194 581,-194 581,-230"/>
<text text-anchor="middle" x="554" y="-208.6" font-family="Courier,monospace" font-size="11.00">Form</text>
</a>
</g>
<!-- \\no\\malmanger\\mjqm\\BaseModel -->
<g id="node11" class="node"><title>\\no\\malmanger\\mjqm\\BaseModel</title>
<a xlink:href="classes.basemodel.class.html" xlink:title="BaseModel" target="_parent">
<polygon fill="none" stroke="black" points="429,-176 353,-176 353,-140 429,-140 429,-176"/>
<text text-anchor="middle" x="391" y="-154.6" font-family="Courier,monospace" font-size="11.00">BaseModel</text>
</a>
</g>
<!-- \\no\\malmanger\\mjqm\\Form&#45;&gt;\\no\\malmanger\\mjqm\\BaseModel -->
<g id="edge11" class="edge"><title>\\no\\malmanger\\mjqm\\Form&#45;&gt;\\no\\malmanger\\mjqm\\BaseModel</title>
<path fill="none" stroke="black" d="M526.717,-202.962C502.964,-195.092 467.965,-183.497 439.458,-174.054"/>
<polygon fill="none" stroke="black" points="440.268,-170.635 429.675,-170.812 438.067,-177.28 440.268,-170.635"/>
</g>
<!-- \\no\\malmanger\\mjqm\\Chain -->
<g id="node14" class="node"><title>\\no\\malmanger\\mjqm\\Chain</title>
<a xlink:href="classes.chain.class.html" xlink:title="Chain" target="_parent">
<polygon fill="none" stroke="black" points="261,-257 207,-257 207,-221 261,-221 261,-257"/>
<text text-anchor="middle" x="234" y="-235.6" font-family="Courier,monospace" font-size="11.00">Chain</text>
</a>
</g>
<!-- \\no\\malmanger\\mjqm\\Element&#45;&gt;\\no\\malmanger\\mjqm\\Chain -->
<g id="edge13" class="edge"><title>\\no\\malmanger\\mjqm\\Element&#45;&gt;\\no\\malmanger\\mjqm\\Chain</title>
<path fill="none" stroke="black" d="M358.85,-303.413C333.09,-290.123 296.955,-271.48 270.184,-257.668"/>
<polygon fill="none" stroke="black" points="271.63,-254.476 261.138,-253.001 268.42,-260.697 271.63,-254.476"/>
</g>
<!-- \\no\\malmanger\\mjqm\\IElement -->
<g id="node19" class="node"><title>\\no\\malmanger\\mjqm\\IElement</title>
<a xlink:href="classes.ielement.interface.html" xlink:title="IElement" target="_parent">
<polygon fill="none" stroke="black" points="269,-338 199,-338 199,-302 269,-302 269,-338"/>
<text text-anchor="middle" x="234" y="-316.6" font-family="Courier,monospace" font-size="11.00">IElement</text>
</a>
</g>
<!-- \\no\\malmanger\\mjqm\\Element&#45;&gt;\\no\\malmanger\\mjqm\\IElement -->
<g id="edge31" class="edge"><title>\\no\\malmanger\\mjqm\\Element&#45;&gt;\\no\\malmanger\\mjqm\\IElement</title>
<path fill="none" stroke="black" stroke-dasharray="1,5" d="M358.85,-320C336.063,-320 305.157,-320 279.797,-320"/>
<polygon fill="none" stroke="black" points="279.666,-316.5 269.666,-320 279.666,-323.5 279.666,-316.5"/>
</g>
<!-- \\no\\malmanger\\mjqm\\IRenderable -->
<g id="node10" class="node"><title>\\no\\malmanger\\mjqm\\IRenderable</title>
<a xlink:href="classes.irenderable.interface.html" xlink:title="IRenderable" target="_parent">
<polygon fill="none" stroke="black" points="279,-176 189,-176 189,-140 279,-140 279,-176"/>
<text text-anchor="middle" x="234" y="-154.6" font-family="Courier,monospace" font-size="11.00">IRenderable</text>
</a>
</g>
<!-- \\no\\malmanger\\mjqm\\BaseModel&#45;&gt;\\no\\malmanger\\mjqm\\IRenderable -->
<g id="edge33" class="edge"><title>\\no\\malmanger\\mjqm\\BaseModel&#45;&gt;\\no\\malmanger\\mjqm\\IRenderable</title>
<path fill="none" stroke="black" stroke-dasharray="1,5" d="M352.191,-158C333.392,-158 310.472,-158 289.838,-158"/>
<polygon fill="none" stroke="black" points="289.605,-154.5 279.605,-158 289.605,-161.5 289.605,-154.5"/>
</g>
<!-- \\no\\malmanger\\mjqm\\BaseModel&#45;&gt;\\no\\malmanger\\mjqm\\Chain -->
<g id="edge15" class="edge"><title>\\no\\malmanger\\mjqm\\BaseModel&#45;&gt;\\no\\malmanger\\mjqm\\Chain</title>
<path fill="none" stroke="black" d="M355.766,-176.178C330.322,-189.305 296.058,-206.983 270.359,-220.241"/>
<polygon fill="none" stroke="black" points="268.593,-217.214 261.311,-224.91 271.803,-223.435 268.593,-217.214"/>
</g>
<!-- \\no\\malmanger\\mjqm\\View -->
<g id="node12" class="node"><title>\\no\\malmanger\\mjqm\\View</title>
<a xlink:href="classes.view.class.html" xlink:title="View" target="_parent">
<polygon fill="none" stroke="black" points="418,-257 364,-257 364,-221 418,-221 418,-257"/>
<text text-anchor="middle" x="391" y="-235.6" font-family="Courier,monospace" font-size="11.00">View</text>
</a>
</g>
<!-- \\no\\malmanger\\mjqm\\View&#45;&gt;\\no\\malmanger\\mjqm\\Chain -->
<g id="edge17" class="edge"><title>\\no\\malmanger\\mjqm\\View&#45;&gt;\\no\\malmanger\\mjqm\\Chain</title>
<path fill="none" stroke="black" d="M363.653,-239C338.101,-239 299.742,-239 271.371,-239"/>
<polygon fill="none" stroke="black" points="271.034,-235.5 261.034,-239 271.034,-242.5 271.034,-235.5"/>
</g>
<!-- \\no\\malmanger\\mjqm\\PageElement -->
<g id="node13" class="node"><title>\\no\\malmanger\\mjqm\\PageElement</title>
<a xlink:href="classes.pageelement.class.html" xlink:title="PageElement" target="_parent">
<polygon fill="none" stroke="black" points="769,-338 679,-338 679,-302 769,-302 769,-338"/>
<text text-anchor="middle" x="724" y="-316.6" font-family="Courier,monospace" font-size="11.00">PageElement</text>
</a>
</g>
<!-- \\no\\malmanger\\mjqm\\JqmElement -->
<g id="node16" class="node"><title>\\no\\malmanger\\mjqm\\JqmElement</title>
<a xlink:href="classes.jqmelement.class.html" xlink:title="JqmElement" target="_parent">
<polygon fill="none" stroke="black" points="596,-338 512,-338 512,-302 596,-302 596,-338"/>
<text text-anchor="middle" x="554" y="-316.6" font-family="Courier,monospace" font-size="11.00">JqmElement</text>
</a>
</g>
<!-- \\no\\malmanger\\mjqm\\PageElement&#45;&gt;\\no\\malmanger\\mjqm\\JqmElement -->
<g id="edge19" class="edge"><title>\\no\\malmanger\\mjqm\\PageElement&#45;&gt;\\no\\malmanger\\mjqm\\JqmElement</title>
<path fill="none" stroke="black" d="M678.443,-320C656.268,-320 629.491,-320 606.465,-320"/>
<polygon fill="none" stroke="black" points="606.179,-316.5 596.179,-320 606.179,-323.5 606.179,-316.5"/>
</g>
<!-- \\no\\malmanger\\mjqm\\IChainable -->
<g id="node18" class="node"><title>\\no\\malmanger\\mjqm\\IChainable</title>
<a xlink:href="classes.ichainable.interface.html" xlink:title="IChainable" target="_parent">
<polygon fill="none" stroke="black" points="116,-257 32,-257 32,-221 116,-221 116,-257"/>
<text text-anchor="middle" x="74" y="-235.6" font-family="Courier,monospace" font-size="11.00">IChainable</text>
</a>
</g>
<!-- \\no\\malmanger\\mjqm\\Chain&#45;&gt;\\no\\malmanger\\mjqm\\IChainable -->
<g id="edge35" class="edge"><title>\\no\\malmanger\\mjqm\\Chain&#45;&gt;\\no\\malmanger\\mjqm\\IChainable</title>
<path fill="none" stroke="black" stroke-dasharray="1,5" d="M206.858,-239C184.801,-239 153.041,-239 126.104,-239"/>
<polygon fill="none" stroke="black" points="126.046,-235.5 116.046,-239 126.046,-242.5 126.046,-235.5"/>
</g>
<!-- \\no\\malmanger\\mjqm\\Page -->
<g id="node15" class="node"><title>\\no\\malmanger\\mjqm\\Page</title>
<a xlink:href="classes.page.class.html" xlink:title="Page" target="_parent">
<polygon fill="none" stroke="black" points="581,-176 527,-176 527,-140 581,-140 581,-176"/>
<text text-anchor="middle" x="554" y="-154.6" font-family="Courier,monospace" font-size="11.00">Page</text>
</a>
</g>
<!-- \\no\\malmanger\\mjqm\\Page&#45;&gt;\\no\\malmanger\\mjqm\\BaseModel -->
<g id="edge21" class="edge"><title>\\no\\malmanger\\mjqm\\Page&#45;&gt;\\no\\malmanger\\mjqm\\BaseModel</title>
<path fill="none" stroke="black" d="M526.717,-158C503.068,-158 468.27,-158 439.832,-158"/>
<polygon fill="none" stroke="black" points="439.675,-154.5 429.675,-158 439.675,-161.5 439.675,-154.5"/>
</g>
<!-- \\no\\malmanger\\mjqm\\JqmElement&#45;&gt;\\no\\malmanger\\mjqm\\Element -->
<g id="edge23" class="edge"><title>\\no\\malmanger\\mjqm\\JqmElement&#45;&gt;\\no\\malmanger\\mjqm\\Element</title>
<path fill="none" stroke="black" d="M511.599,-320C487.524,-320 457.483,-320 433.406,-320"/>
<polygon fill="none" stroke="black" points="433.148,-316.5 423.148,-320 433.148,-323.5 433.148,-316.5"/>
</g>
<!-- \\no\\malmanger\\mjqm\\ScriptElement -->
<g id="node17" class="node"><title>\\no\\malmanger\\mjqm\\ScriptElement</title>
<a xlink:href="classes.scriptelement.class.html" xlink:title="ScriptElement" target="_parent">
<polygon fill="none" stroke="black" points="606,-284 502,-284 502,-248 606,-248 606,-284"/>
<text text-anchor="middle" x="554" y="-262.6" font-family="Courier,monospace" font-size="11.00">ScriptElement</text>
</a>
</g>
<!-- \\no\\malmanger\\mjqm\\ScriptElement&#45;&gt;\\no\\malmanger\\mjqm\\Element -->
<g id="edge25" class="edge"><title>\\no\\malmanger\\mjqm\\ScriptElement&#45;&gt;\\no\\malmanger\\mjqm\\Element</title>
<path fill="none" stroke="black" d="M501.978,-283.234C479.618,-290.642 453.836,-299.183 432.754,-306.167"/>
<polygon fill="none" stroke="black" points="431.515,-302.891 423.123,-309.358 433.716,-309.536 431.515,-302.891"/>
</g>
<!-- \\no\\malmanger\\mjqm\\Multipage -->
<g id="node20" class="node"><title>\\no\\malmanger\\mjqm\\Multipage</title>
<a xlink:href="classes.multipage.class.html" xlink:title="Multipage" target="_parent">
<polygon fill="none" stroke="black" points="592,-122 516,-122 516,-86 592,-86 592,-122"/>
<text text-anchor="middle" x="554" y="-100.6" font-family="Courier,monospace" font-size="11.00">Multipage</text>
</a>
</g>
<!-- \\no\\malmanger\\mjqm\\Multipage&#45;&gt;\\no\\malmanger\\mjqm\\BaseModel -->
<g id="edge27" class="edge"><title>\\no\\malmanger\\mjqm\\Multipage&#45;&gt;\\no\\malmanger\\mjqm\\BaseModel</title>
<path fill="none" stroke="black" d="M515.371,-116.797C492.617,-124.335 463.63,-133.939 439.365,-141.977"/>
<polygon fill="none" stroke="black" points="438.026,-138.734 429.634,-145.201 440.227,-145.379 438.026,-138.734"/>
</g>
<!-- \\no\\malmanger\\mjqm\\Head -->
<g id="node21" class="node"><title>\\no\\malmanger\\mjqm\\Head</title>
<a xlink:href="classes.head.class.html" xlink:title="Head" target="_parent">
<polygon fill="none" stroke="black" points="581,-68 527,-68 527,-32 581,-32 581,-68"/>
<text text-anchor="middle" x="554" y="-46.6" font-family="Courier,monospace" font-size="11.00">Head</text>
</a>
</g>
<!-- \\no\\malmanger\\mjqm\\Head&#45;&gt;\\no\\malmanger\\mjqm\\BaseModel -->
<g id="edge29" class="edge"><title>\\no\\malmanger\\mjqm\\Head&#45;&gt;\\no\\malmanger\\mjqm\\BaseModel</title>
<path fill="none" stroke="black" d="M526.847,-63.1149C518.714,-67.3041 509.869,-72.1249 502,-77 473.768,-94.4909 443.416,-116.912 421.598,-133.729"/>
<polygon fill="none" stroke="black" points="419.43,-130.981 413.677,-139.878 423.722,-136.511 419.43,-130.981"/>
</g>
</g>
</svg>
